<?xml version="1.0" encoding="UTF-8" standalone="no"?>
<svg
   xmlns:dc="http://purl.org/dc/elements/1.1/"
   xmlns:cc="http://creativecommons.org/ns#"
   xmlns:rdf="http://www.w3.org/1999/02/22-rdf-syntax-ns#"
   xmlns:svg="http://www.w3.org/2000/svg"
   xmlns="http://www.w3.org/2000/svg"
   xmlns:xlink="http://www.w3.org/1999/xlink"
   xmlns:sodipodi="http://sodipodi.sourceforge.net/DTD/sodipodi-0.dtd"
   xmlns:inkscape="http://www.inkscape.org/namespaces/inkscape"
   viewBox="0 0 512 512"
   class="teapot"
   version="1.1"
   id="svg50"
   sodipodi:docname="teapot.svg"
   inkscape:version="0.92.4 (5da689c313, 2019-01-14)"
   inkscape:export-filename="C:\Users\romai\Desktop\teapot.png"
   inkscape:export-xdpi="96"
   inkscape:export-ydpi="96">
  <metadata
     id="metadata54">
    <rdf:RDF>
      <cc:Work
         rdf:about="">
        <dc:format>image/svg+xml</dc:format>
        <dc:type
           rdf:resource="http://purl.org/dc/dcmitype/StillImage" />
      </cc:Work>
    </rdf:RDF>
  </metadata>
  <sodipodi:namedview
     pagecolor="#ffffff"
     bordercolor="#666666"
     borderopacity="1"
     objecttolerance="10"
     gridtolerance="10"
     guidetolerance="10"
     inkscape:pageopacity="0"
     inkscape:pageshadow="2"
     inkscape:window-width="1920"
     inkscape:window-height="1017"
     id="namedview52"
     showgrid="false"
     inkscape:zoom="1.3037281"
     inkscape:cx="62.747537"
     inkscape:cy="257.64379"
     inkscape:window-x="1912"
     inkscape:window-y="127"
     inkscape:window-maximized="1"
     inkscape:current-layer="svg50" />
  <path
     d="M102.25 348.16C43.5 350.068-8.73 292.3 1.21 233.977c5.92-33.31 42.715-54.436 74.858-45.69 26.304 1.246 40.78 27.444 65.057 32.07 7.072 2.112 1.633 16.158 3.34 23.387 5.89 19.235-14.884 12.295-26.262 7.918-23.09-10.014-43.966-40-71.88-24.88-19.114 15.604-7.92 44.94 4.91 61.157 15.414 20.092 41.594 26.065 65.666 23.873l24.054-.338.507 36.142-39.2.542z"
     fill="#e4e7e9"
     id="path2" />
  <path
     d="M102.7 312c-16.32 6.278-42.832-25.24-40.054 3.357-11.173 31.486 24.185 33.838 46.832 32.696l31.978-.45-.507-36.142-38.25.537zm17.726-101.03c-16.82-21.624-13.524 17.43-23.756 27.235 11.163 10.08 38.214 24.612 47.8 14.572v-32.274a35.01 35.01 0 0 1-24.034-9.533z"
     opacity=".1"
     id="path4" />
  <path
     d="M348.27 396.8v-81.835c29.183-4.9 61.727-5.738 83.984-28.164 20.31-16.903 25.147-43.66 35.91-66.337 9.61-7.982 23.4-3.108 35.03-4.455 15.295.17 4.99 16.11 1.68 23.763-12.116 24.914-2.3 54.787-17.5 78.866-27.78 48.448-83.628 78.448-139.105 78.162z"
     fill="#e4e7e9"
     id="path6" />
  <path
     d="M422.03 294.88c-21.548 15.48-48.7 15.42-73.764 20.076v81.835c22.184-2.457 54.047-.433 67.178-20.525 11.78-25.2 14.138-54.608 6.586-81.386z"
     opacity=".1"
     id="path8" />
  <path
     d="M264.882 82.348c1.163 20.68-28.538 31.05-40.485 14.112-13.55-15.245 2.577-41.51 22.293-36.36 10.367 1.933 18.357 11.704 18.192 22.25z"
     fill="#60d195"
     id="path10" />
  <path
     d="M251 61.418c26.18 19.636-13.976 46.692-20.477 40.404 27.643 16.37 49.466-28.1 20.477-40.404z"
     opacity=".1"
     id="path12" />
  <path
     d="M343.15 174.68H141.2c.774 34.363-14.387 66.525-34.665 93.4-24.984 41.955-18.683 97.608 11.818 135.017l17.13 24.9h213.4c19.6-28.884 43.828-57.6 44.293-94.446 2.816-32.576-11.37-63.32-30.65-88.65a137.24 137.24 0 0 1-19.366-70.231zM258.7 98.088c-29.15-.054-61.075-2.664-85.077 17.43-12.637 9.77-21.82 23.02-32.42 34.812h201.95c-17.827-21.4-36.533-45.276-65.845-50.215a86.37 86.37 0 0 0-18.609-2.028z"
     fill="#e4e7e9"
     id="path14" />
  <rect
     style="fill:#2b0000"
     id="rect1244"
     width="19.254238"
     height="69.966103"
     x="184.13559"
     y="153.76271" />
  <path
     d="M353.62 150.33H130.74c-25.883 7.13-3.46 30.76 14.196 24.348H353.62c15.92.168 15.923-24.477 0-24.348z"
     fill="#60d195"
     id="path20" />
  <path
     d="M353.62 150.33h-28.753c18.33-.67 11.578 26.663 1.29 24.348 11.993-1.187 25.443 3.016 36.07-3.565 7.737-7.166 1.934-21.182-8.608-20.782z"
     opacity=".1"
     id="path22" />
  <path
     d="M 353.62,428 H 130.74 c -15.9116,11.73219 -5.57167,25.56093 14.196,24.348 H 353.62 c 15.92,0.168 15.923,-24.477 0,-24.348 z"
     id="path24"
     inkscape:connector-curvature="0"
     style="fill:#60d195"
     sodipodi:nodetypes="ccccc" />
  <path
     d="M353.62 428h-28.753c18.33-.67 11.578 26.663 1.29 24.348 11.993-1.187 25.443 3.016 36.07-3.565 7.737-7.166 1.934-21.183-8.608-20.783z"
     opacity=".1"
     id="path26" />
  <path
     d="M182.404 314.204c-.006 9.872-11.756 4.872-7.677-3.23 2.193-4.628 7.783-2.283 7.677 3.23z"
     fill="#fff"
     id="path28" />
  <use
     xlink:href="#B"
     width="100%"
     height="100%"
     id="use30" />
  <use
     x="138.149"
     xlink:href="#B"
     width="100%"
     height="100%"
     id="use32" />
  <path
     d="M320.553 314.204c-.006 9.872-11.756 4.872-7.677-3.23 2.193-4.628 7.783-2.283 7.677 3.23z"
     fill="#fff"
     id="path34" />
  <g
     class="bouche"
     id="g46">
    <g
       class="bouche"
       id="g42"
       transform="matrix(4.1959629,0,0,4.1959629,-817.37411,-613.49662)">
      <g
         id="g40"
         transform="translate(186.77207,157.24137)">
        <path
           d="m 49.9,77.976535 c 0,1.844245 1.885,6.107488 4.528,7.023465 3.228,-1.118486 7.589,-1.608959 11.072,-1.608959 3.483,0 7.844,0.490473 11.072,1.608959 2.643,-0.915977 4.528,-5.17922 4.528,-7.023465 H 65.584"
           id="path36"
           inkscape:connector-curvature="0"
           style="fill:#a862a6;stroke-width:0.76504165" />
        <path
           d="m 54.428,85 c 7.116,3.558 15.028,3.558 22.144,0 0.341008,-6.395399 -20.948554,-5.317336 -22.144,0 z"
           id="path38"
           inkscape:connector-curvature="0"
           style="fill:#e0b7e5"
           sodipodi:nodetypes="ccc" />
      </g>
    </g>
  </g>
  <defs
     id="defs162">
    <path
       id="B"
       d="M171.113 303.06c-27.678-.06-13.994 61.358 9.036 40.21 13.198-11.114 6.488-41.034-9.036-40.21zm7.085 16.866c-16.213-14.128 15.855-14.243 0 0z" />
  </defs>
  <g
     id="g1240"
     transform="matrix(0.75338056,0,0,0.76152444,137.09092,169.22436)">
    <path
       style="clip-rule:evenodd;fill:#fff22d;fill-rule:evenodd;stroke-width:0.44108018"
       inkscape:connector-curvature="0"
       id="path2-5"
       d="m 111.43247,58.460713 c -6.2916,-7.208916 -77.96229,-4.70537 -80.184218,0 -5.176067,10.96134 -5.741155,71.674877 0,75.454147 11.358418,7.47699 62.976459,20.23325 80.184218,0 3.81856,-4.48994 5.62387,-69.010311 0,-75.454147 z"
       sodipodi:nodetypes="sssss" />
    <g
       transform="translate(-1.1505466,-7.6703108)"
       id="g1226">
      <g
         transform="matrix(0.51129018,0,0,0.51129018,16.007439,27.316099)"
         id="g748">
        <path
           style="clip-rule:evenodd;fill:#c6a72a;fill-rule:evenodd"
           inkscape:connector-curvature="0"
           id="path472"
           d="m 45.954521,178.4522 1.587,1.889 h 6.809 c 5.409,0 9.26,0.228 12.875,0.933 3.624,0.709 7.12,1.913 11.808,3.866 4.71,1.962 10.006,3.519 15.716,4.577 5.493999,1.016 11.333999,1.568 17.361999,1.568 6.028,0 11.868,-0.553 17.362,-1.568 5.71,-1.059 11.006,-2.615 15.716,-4.577 4.643,-1.934 8.105,-3.139 11.69,-3.85 3.585,-0.712 7.4,-0.949 12.749,-0.949 h 7.144 l 1.496,-1.912 -5.605,-3.693 h -3.034 c -5.698,0 -9.822,0.265 -13.823,1.059 -4,0.794 -7.771,2.099 -12.762,4.177 -4.378,1.824 -9.291,3.271 -14.577,4.248 -5.111,0.947 -10.609,1.461 -16.355,1.461 -5.746,0 -11.244,-0.514 -16.354999,-1.461 -5.287,-0.978 -10.2,-2.424 -14.578,-4.248 -5.045,-2.101 -8.849,-3.405 -12.88,-4.193 -4.041,-0.788 -8.199,-1.042 -13.949,-1.042 h -2.791 z" />
        <path
           style="fill:#ffffff"
           inkscape:connector-curvature="0"
           id="path474"
           d="m 45.954521,135.5922 h 7.181 c 5.419,0 9.385,-0.068 13.01,-0.631 3.608,-0.56 7.098,-1.633 11.681,-3.652 4.827,-2.125 10.299,-3.816 16.218,-4.963 5.681,-1.099 11.761999,-1.698 18.066999,-1.698 6.028,0 11.868,0.552 17.362,1.569 5.71,1.058 11.006,2.615 15.716,4.577 4.74,1.975 8.267,3.18 11.913,3.88 3.645,0.701 7.538,0.918 13.014,0.918 h 8.152 v 42.816 h -8.64 c -5.349,0 -9.164,0.237 -12.749,0.949 -3.585,0.711 -7.048,1.915 -11.69,3.849 -4.71,1.963 -10.006,3.52 -15.716,4.577 -5.494,1.018 -11.334,1.568 -17.362,1.568 -6.028,0 -11.868,-0.551 -17.361999,-1.568 -5.709,-1.058 -11.005,-2.614 -15.716,-4.577 -4.688,-1.952 -8.185,-3.156 -11.808,-3.865 -3.615,-0.705 -7.466,-0.933 -12.875,-0.933 h -8.396 z m 5.606,5.605 v 31.604 h 2.791 c 5.75,0 9.908,0.255 13.949,1.044 4.031,0.787 7.834,2.092 12.88,4.193 4.378,1.823 9.291,3.269 14.578,4.248 5.110999,0.946 10.608999,1.46 16.354999,1.46 5.746,0 11.244,-0.514 16.355,-1.46 5.286,-0.979 10.199,-2.425 14.577,-4.248 4.991,-2.08 8.762,-3.385 12.762,-4.178 4.001,-0.794 8.125,-1.06 13.823,-1.06 h 3.034 v -31.603 h -2.547 c -5.796,0 -9.985,-0.244 -14.064,-1.027 -4.076,-0.783 -7.916,-2.087 -13.008,-4.208 -4.378,-1.824 -9.291,-3.27 -14.577,-4.249 -5.111,-0.946 -10.609,-1.459 -16.355,-1.459 -5.976,0 -11.702,0.56 -17.017999,1.589 -5.489,1.062 -10.554,2.626 -15.012,4.59 -5.025,2.213 -8.937,3.403 -13.083,4.046 -4.128,0.64 -8.27,0.718 -13.865,0.718 z" />
        <path
           style="fill:#cc2229"
           inkscape:connector-curvature="0"
           id="path476"
           d="m 49.297521,138.5042 h 6.819 c 7.647,0 16.451,-1.815 23.443,-4.75 4.583,-1.923 9.777,-3.453 15.397,-4.49 5.393999,-0.996 11.167999,-1.537 17.154999,-1.537 5.723,0 11.268,0.499 16.484,1.42 5.422,0.957 10.449,2.366 14.922,4.141 7.142,2.835 15.888,5.216 23.668,5.216 h 7.74 v 36.993 h -8.203 c -7.603,0 -16.229,2.447 -23.205,5.217 -4.473,1.775 -9.5,3.185 -14.922,4.141 a 95.1,95.1 0 0 1 -16.484,1.42 95.094,95.094 0 0 1 -16.484999,-1.42 c -5.42,-0.956 -10.449,-2.365 -14.922,-4.141 -7.055,-2.801 -15.748,-5.217 -23.435,-5.217 h -7.973 v -36.993 z" />
        <path
           style="fill:#76070b"
           inkscape:connector-curvature="0"
           id="path542"
           d="m 49.297521,138.5042 h 6.819 c 7.647,0 16.451,-1.815 23.443,-4.75 4.583,-1.923 9.777,-3.453 15.397,-4.49 5.393999,-0.996 11.167999,-1.537 17.154999,-1.537 5.723,0 11.268,0.499 16.484,1.42 5.422,0.957 10.449,2.366 14.922,4.141 7.142,2.835 15.888,5.216 23.668,5.216 h 7.74 v 2.448 h -6.406 c -7.779,0 -16.525,-2.382 -23.666,-5.216 -4.473,-1.776 -9.502,-3.185 -14.922,-4.142 a 95.109,95.109 0 0 0 -16.484,-1.42 c -5.988,0 -11.763,0.542 -17.156999,1.537 -5.619,1.037 -10.814,2.567 -15.397,4.491 -6.992,2.934 -15.796,4.75 -23.444,4.75 h -6.818 v 34.545 h -1.334 z" />
        <path
           style="fill:#76070b"
           inkscape:connector-curvature="0"
           id="path544"
           d="m 174.92652,174.6072 v 0.89 h -8.203 c -7.603,0 -16.229,2.447 -23.205,5.217 -4.473,1.775 -9.5,3.185 -14.922,4.141 a 95.1,95.1 0 0 1 -16.484,1.42 95.094,95.094 0 0 1 -16.484999,-1.42 c -5.42,-0.956 -10.449,-2.365 -14.922,-4.141 -7.055,-2.801 -15.748,-5.217 -23.435,-5.217 h -7.973 v -0.89 h 7.973 c 7.688,0 16.38,2.415 23.435,5.217 4.473,1.776 9.501,3.185 14.922,4.14 a 95.003,95.003 0 0 0 16.484999,1.421 c 5.723,0 11.268,-0.499 16.484,-1.421 5.422,-0.955 10.449,-2.363 14.922,-4.14 6.977,-2.77 15.603,-5.217 23.205,-5.217 z" />
        <path
           style="fill:#76070b"
           inkscape:connector-curvature="0"
           id="path546"
           d="m 173.36952,138.5042 h 1.557 v 36.992 l -1.557,-0.889 z" />
      </g>
      <g
         id="g1210"
         transform="matrix(0.0969758,0,0,0.07345777,56.568985,95.039998)"
         style="fill:#ffffff">
        <path
           style="fill:#ffffff;fill-opacity:1"
           d="m 290.27738,177.35593 c 0,-17.875 0.1356,-25.1875 0.30134,-16.25 0.16573,8.9375 0.16573,23.5625 0,32.5 -0.16574,8.9375 -0.30134,1.625 -0.30134,-16.25 z m -415.98413,-23 c 0,-26.675 0.12889,-37.5875 0.28641,-24.25 0.15752,13.3375 0.15752,35.1625 0,48.5 -0.15752,13.3375 -0.28641,2.425 -0.28641,-24.25 z"
           id="path1214"
           inkscape:connector-curvature="0" />
        <path
           style="fill:#ffffff;fill-opacity:1;stroke-width:0.88057601"
           d="m 140.04031,242.97548 c -1.03787,-0.46068 -1.73624,-19.71448 -0.71507,-19.71448 0.21211,0 3.08499,0.62685 6.38418,1.39302 10.57391,2.45554 18.32667,0.22138 22.92866,-6.60751 3.23445,-4.79961 2.64394,-7.38409 -10.32784,-45.20168 -12.56348,-36.62724 -14.84862,-42.31631 -18.95986,-47.20223 -2.32849,-2.76727 -2.32849,-2.76727 16.15148,-2.76727 18.47998,0 18.47998,0 19.46847,5.94389 1.01106,6.07963 13.36589,47.74157 14.1621,47.75624 2.72076,0.0502 12.61729,-48.10781 10.64395,-51.79502 -1.01958,-1.90511 -1.01958,-1.90511 12.22004,-1.90511 7.44145,0 13.23962,0.35368 13.23962,0.80758 0,0.44416 -0.82584,2.72265 -1.83522,5.06331 -1.00937,2.34066 -7.12541,19.94364 -13.59121,39.11773 -18.41102,54.59729 -23.85299,64.02601 -41.81101,72.44154 -5.59347,2.62123 -24.08883,4.38751 -27.95829,2.66999 z M 262.13487,211.7936 c -9.69312,-1.50192 -17.85358,-6.60858 -20.11186,-12.58562 -0.59364,-1.57121 -0.9366,-13.2597 -0.9366,-31.92088 0,-29.44197 0,-29.44197 -6.16403,-29.44197 -9.57521,0 -9.78927,-14.73052 -0.22014,-15.14971 5.94388,-0.26037 5.94388,-0.26037 6.38417,-8.98232 0.40998,-8.12145 15.26355,-16.302759 29.71944,-16.369393 0.8284,-0.0038 1.10072,3.044883 1.10072,12.322983 0,12.32807 0,12.32807 8.80576,12.32807 8.80576,0 8.80576,0 8.80576,7.92518 0,7.92519 0,7.92519 -8.80576,7.92519 -8.80576,0 -8.80576,0 -8.71798,24.87627 0.11327,32.10116 0.10749,32.08485 11.69414,33.01491 8.92557,0.71647 9.204,13.57273 0.326,15.05274 -8.81191,1.469 -16.58028,1.82567 -21.87962,1.00455 z m 71.85231,0.33996 c -54.98063,-8.41037 -48.89906,-91.76266 6.70427,-91.88693 27.00988,-0.0604 45.69,18.99726 45.69,46.61336 0,27.82145 -25.03958,49.45801 -52.39427,45.27357 z m 12.08697,-16.13809 c 12.3036,-9.67802 8.24697,-60.79207 -4.82471,-60.79207 -8.58619,0 -11.70018,9.77602 -10.98793,34.4954 0.67799,23.53069 6.66705,33.49059 15.81264,26.29667 z M 86.502712,210.58383 c -46.533194,-11.30384 -44.482896,-79.55008 2.678835,-89.16773 23.497033,-4.79173 45.644433,11.20036 45.760863,33.0428 0.0346,6.48913 0.0346,6.48913 -23.7007,14.62986 -26.683037,9.15174 -25.386424,8.2165 -21.500134,15.50792 7.445569,13.96932 24.729784,14.28536 39.078904,0.71457 4.83566,-4.57336 4.83566,-4.57336 4.83566,4.59438 0,9.16775 0,9.16775 -4.18274,11.89501 -13.58852,8.86008 -29.37282,12.08639 -42.970688,8.78319 z m 15.556638,-55.67832 c 3.77818,-4.02205 2.13619,-17.43558 -2.344837,-19.15512 -4.932987,-1.89295 -10.563909,0.57899 -13.279025,5.82943 -1.221948,2.363 -3.130976,19.58854 -2.26669,20.45283 0.877952,0.87795 16.047622,-5.16525 17.890552,-7.12714 z m -227.7661,-0.54958 c 0.0333,-55.696437 0.0333,-55.696437 -3.00924,-61.860465 -1.67337,-3.390218 -3.20469,-6.4982 -3.40292,-6.906627 -0.70906,-1.460841 64.816061,-0.05083 71.60804,1.540911 23.160241,5.427731 35.237525,20.497711 32.090039,40.041801 -3.244509,20.14659 -17.399134,28.79476 -50.003607,30.55112 -14.47403,0.77969 -17.467464,28.34649 -5.610683,51.66926 0.184662,0.36323 -9.123393,0.66043 -20.684569,0.66043 -21.02031,0 -21.02031,0 -20.98706,-55.69643 z m 52.143389,-16.51913 c 12.688589,-5.50935 12.275671,-27.76013 -0.610844,-32.91629 -14.114014,-5.647308 -15.835961,-3.84262 -15.835961,16.59689 0,20.40486 2.142168,22.53044 16.446805,16.3194 z m 60.593794,38.53353 c 0.01024,-35.18183 -0.530696,-41.97159 -3.96371,-49.75255 -1.651203,-3.74245 -1.651203,-3.74245 14.4798659,-3.74245 17.8814521,0 17.2317891,-0.314 17.2317891,8.32879 0,4.45744 0.731195,4.2689 6.61929,-1.7068 6.800662,-6.90184 17.199032,-10.88157 22.807984,-8.72921 4.758791,1.82612 1.481226,21.04495 -3.535777,20.73295 -19.655354,-1.22239 -30.7751008,36.76132 -18.883424,64.50348 1.735105,4.04782 1.735105,4.04782 -16.5153613,4.04782 -18.2504657,0 -18.2504657,0 -18.2406567,-33.68203 z m 416.955887,-0.88058 c -0.007,-35.75212 -0.55354,-43.28589 -3.5699,-49.19845 -1.7427,-3.41597 -1.7427,-3.41597 14.55545,-3.41597 16.29814,0 16.29814,0 16.86138,3.52231 0.30978,1.93726 0.66557,3.5223 0.79065,3.5223 0.12507,0 2.58197,-1.57232 5.45979,-3.49405 12.171,-8.12749 26.23748,-8.04304 35.19234,0.21126 7.71694,7.11323 7.64976,6.78468 8.23335,40.26698 0.53878,30.91123 0.4612,30.2458 4.85078,41.60722 0.55491,1.43627 -0.60799,1.54101 -17.11035,1.54101 -17.70573,0 -17.70573,0 -17.70573,-30.80234 0,-39.52413 -3.32434,-47.84694 -14.60534,-36.56594 -3.23193,3.23192 -3.2752,51.97377 -0.0545,61.42439 2.02561,5.94389 2.02561,5.94389 -15.43282,5.94389 -17.45842,0 -17.45842,0 -17.46507,-34.56261 z"
           id="path1212"
           inkscape:connector-curvature="0" />
      </g>
    </g>
  </g>
</svg>
