<svg width="200" height="120" viewBox="0 0 53 31" xmlns="http://www.w3.org/2000/svg" xmlns:xlink="http://www.w3.org/1999/xlink" xmlns:bx="https://boxy-svg.com">
  <defs>
    <path id="path-0" d="M 11.844 21.329 C 14.424 20.449 15.926 18.687 17.972 18.047 C 19.594 17.307 22.009 16.116 23.748 15.799 C 25.244 15.526 29.425 15.548 31.469 16.299 C 34.08 17.259 37.113 18.833 40.745 21.259" style="fill: none;"></path>
    <path id="path-1" style="fill: none;" d="M 21.476 12.268 C 25.302 11.207 25.439 10.81 26.792 10.77 C 28.452 10.721 32.035 12.714 30.786 11.876"></path>
    <path id="path-2" d="M 20.941 12.66 C 24.134 12.598 25.265 12.342 26.97 12.768 C 28.735 13.105 29.662 13.663 31.179 14.337 C 31.82 14.694 30.995 15.104 34.033 15.8" style="fill: none;"></path>
    <path id="path-3" d="M 15.269 17.013 C 20.565 17.013 20.605 18.297 24.009 18.297 C 25.647 18.297 28.943 18.976 30.252 19.117 C 32.36 19.344 35.908 18.975 36.352 18.975" style="fill: none;"></path>
  </defs>
  <g class="banner" style="visibility: hidden;">
    <path d="M 51.264 9.865 C 51.264 9.865 50.882 11.2 49.356 11.2 L 48.783 11.2 C 47.066 11.2 44.395 11.2 43.631 12.154 L 43.25 12.917 L 42.486 12.917 C 41.151 12.917 40.578 13.681 40.578 14.253 C 40.578 16.543 40.96 17.306 40.96 17.306 L 40.578 17.306 L 40.388 17.115 L 40.388 17.306 L 40.197 17.306 L 40.197 17.115 L 40.006 16.924 L 38.289 15.97 L 33.9 13.49 L 33.518 13.49 L 33.327 13.299 L 31.61 12.917 L 31.229 12.727 C 28.151 12.03 24.957 12.03 21.879 12.727 L 21.497 12.917 L 19.78 13.299 L 19.589 13.49 L 19.207 13.49 L 14.819 15.97 L 13.102 16.924 L 12.911 16.924 L 12.911 17.306 L 12.72 17.306 L 12.72 17.115 L 12.529 17.306 L 12.148 17.306 C 12.529 16.161 12.529 14.825 12.529 14.253 C 12.529 13.681 11.957 12.917 10.621 12.917 L 9.858 12.917 L 9.476 12.154 C 8.713 11.2 6.042 11.2 4.324 11.2 L 3.943 11.2 C 2.416 11.2 2.035 10.437 1.844 9.864 L 1.653 8.72 C 1.653 8.72 1.081 9.674 1.081 10.437 C 1.081 11.2 1.462 11.773 1.844 12.154 L 1.081 11.773 L 0.27 10.795 L 0.424 12.332 C 0.615 13.286 1.462 14.444 3.561 14.062 L 4.897 14.062 L 4.897 14.444 L 5.278 15.207 L 5.851 17.497 L 6.232 18.069 C 6.805 18.451 7.759 18.451 7.95 18.26 L 8.14 18.451 L 8.522 19.023 C 8.582 19.66 8.646 20.296 8.713 20.931 L 8.713 21.313 L 8.904 21.886 C 9.095 22.076 9.858 22.84 11.575 23.03 L 11.766 23.03 L 11.766 22.84 L 11.957 23.03 L 12.148 23.03 C 13.674 23.03 14.819 22.458 15.773 21.886 L 15.964 21.886 L 15.964 21.695 C 16.155 21.567 16.345 21.44 16.536 21.313 L 16.918 21.313 L 17.681 20.741 C 19.368 19.509 21.235 18.544 23.215 17.879 C 25.399 17.268 27.709 17.268 29.893 17.879 L 30.084 18.069 C 32.183 18.642 33.9 19.787 35.426 20.741 L 36.19 21.313 L 36.571 21.313 L 36.571 21.695 L 37.144 21.695 L 37.144 21.885 L 37.335 21.885 C 38.289 22.458 39.433 23.03 40.96 23.03 L 41.151 23.03 C 41.278 23.03 41.405 23.03 41.532 23.03 L 41.723 23.03 C 43.25 22.84 44.204 22.076 44.204 21.885 L 44.395 21.313 L 44.395 20.932 C 44.422 20.28 44.551 19.636 44.776 19.023 C 44.776 18.642 44.967 18.642 45.158 18.451 L 45.158 18.26 C 45.349 18.451 46.303 18.451 46.875 18.069 L 47.257 17.497 L 47.829 15.207 L 48.211 14.253 L 48.211 14.062 L 49.546 14.062 C 51.645 14.444 51.945 13.358 52.326 12.595 L 52.475 11.343 L 52.027 11.773 C 52.027 11.773 51.836 12.154 51.264 12.154 C 51.645 11.773 52.027 11.2 52.027 10.437 C 52.027 9.674 51.455 9.101 51.455 9.101 L 51.264 9.864" style=""></path>
    <path d="M 1.462 9.865 C 1.462 9.865 1.844 11.582 3.943 11.582 C 5.851 11.582 9.858 11.391 9.476 13.299 L 8.331 13.681 L 7.186 13.108 C 6.614 12.727 5.088 12.345 4.897 13.681 L 3.37 13.681 C 1.653 14.062 0.854 12.703 0.663 11.94 C 0.663 11.94 1.653 12.917 3.18 12.536 C 3.18 12.536 0.89 11.582 1.462 9.865 M 6.996 13.299 C 6.042 12.536 5.278 13.108 5.088 13.681 C 6.042 13.299 6.614 13.681 6.614 13.681 C 5.851 13.49 5.278 13.872 5.278 13.872 L 5.278 14.062 C 6.232 13.872 6.614 14.253 6.614 14.253 L 5.469 14.253 L 6.423 14.444 L 8.14 13.871 L 6.996 13.299 M 10.621 13.299 L 10.239 13.299 L 10.239 13.49 L 10.049 13.681 L 9.667 13.681 L 9.667 13.49 L 6.423 14.635 L 5.278 14.444 C 5.278 15.016 6.042 15.207 6.232 17.306 C 6.232 18.26 7.95 17.878 7.95 17.878 L 7.759 17.115 C 7.759 15.589 9.285 15.589 10.812 15.207 C 12.529 15.016 12.72 13.49 10.621 13.299 M 10.049 17.688 C 10.618 17.549 11.191 17.422 11.766 17.306 L 11.766 16.924 C 10.812 17.306 9.667 17.306 9.667 17.306 C 10.425 17.095 11.189 16.904 11.957 16.734 L 11.957 16.352 C 11.003 16.924 9.476 16.734 9.476 16.734 C 10.295 16.455 11.123 16.201 11.957 15.97 L 11.957 15.78 C 11.003 16.352 9.476 16.161 9.476 16.161 C 10.295 15.883 11.123 15.628 11.957 15.398 L 11.957 15.016 C 11.957 15.016 11.766 15.398 10.43 15.589 C 9.476 15.78 8.522 16.161 8.522 16.924 C 8.522 17.688 9.285 18.069 9.858 18.069 C 10.812 18.069 11.575 17.688 11.575 17.688 L 11.766 17.497 L 10.049 17.688 M 51.645 9.864 C 51.645 9.864 51.264 11.582 49.356 11.582 C 47.257 11.582 43.25 11.391 43.631 13.299 L 44.776 13.681 L 45.921 13.108 C 46.493 12.727 48.02 12.345 48.211 13.681 L 49.737 13.681 C 51.455 14.062 51.79 12.988 51.981 12.225 C 51.981 12.225 51.455 12.917 50.119 12.536 C 50.119 12.536 52.218 11.582 51.645 9.864 M 46.303 13.299 C 47.257 12.536 48.02 13.108 48.211 13.681 C 47.257 13.299 46.684 13.681 46.684 13.681 C 47.448 13.49 48.02 13.871 48.211 13.871 L 48.02 14.062 C 47.066 13.871 46.684 14.253 46.684 14.253 L 47.829 14.253 L 47.066 14.444 L 45.158 13.871 L 46.303 13.299 M 26.84 17.115 L 30.084 17.497 L 30.465 17.306 L 30.465 17.688 C 32.946 18.451 34.854 19.787 36.571 20.932 L 37.144 20.741 L 37.144 21.313 L 37.716 21.122 L 37.716 21.504 C 38.861 22.267 40.006 22.649 41.151 22.649 L 41.342 22.267 L 41.723 22.649 C 43.25 22.458 44.013 21.885 44.013 21.695 L 44.204 20.931 L 44.395 19.023 L 44.204 18.833 L 44.585 18.833 C 44.776 18.069 45.349 18.069 45.349 17.115 C 45.349 15.97 44.204 15.78 44.204 15.78 C 44.204 15.78 44.967 16.161 44.967 16.925 C 44.967 17.688 44.395 18.26 43.25 18.26 C 42.296 18.26 41.532 18.069 40.578 17.497 L 40.006 17.878 L 40.006 17.306 C 38.289 16.352 36.571 15.016 33.9 13.871 L 33.328 14.253 L 33.328 13.681 L 31.801 13.299 L 31.61 13.49 L 31.419 13.108 C 28.344 12.392 25.145 12.392 22.07 13.108 L 22.07 13.49 L 21.688 13.299 L 20.162 13.681 L 20.162 14.253 L 19.589 13.871 C 16.918 15.016 15.201 16.352 13.483 17.306 L 13.483 17.878 L 12.911 17.497 C 11.957 18.069 11.194 18.26 10.24 18.26 C 9.095 18.26 8.522 17.688 8.522 16.925 C 8.522 16.161 9.285 15.779 9.285 15.779 C 9.285 15.779 8.141 15.97 8.141 17.115 C 8.141 18.069 8.713 18.069 8.904 18.833 L 9.285 18.833 L 9.095 19.023 L 9.285 20.931 L 9.476 21.695 C 9.476 21.886 10.24 22.458 11.766 22.649 L 12.148 22.267 L 12.338 22.649 C 13.483 22.649 14.628 22.267 15.773 21.504 L 15.773 21.122 L 16.345 21.313 L 16.345 20.741 L 16.918 20.932 C 18.635 19.787 20.543 18.451 23.024 17.688 L 23.024 17.306 L 23.405 17.497 L 26.84 17.115 M 42.486 13.299 L 43.059 13.299 L 42.868 13.49 L 43.059 13.681 L 43.441 13.681 L 43.441 13.49 L 46.684 14.635 L 47.829 14.444 C 47.829 15.016 47.066 15.207 46.875 17.306 C 46.875 18.26 45.158 17.879 45.158 17.879 L 45.349 17.115 C 45.349 15.589 43.822 15.589 42.296 15.207 C 40.578 15.016 40.388 13.49 42.486 13.299 M 43.25 17.688 L 41.532 17.306 L 41.342 17.306 L 41.342 16.925 C 42.296 17.306 43.441 17.306 43.441 17.306 L 41.914 16.925 L 41.151 16.734 L 41.151 16.352 C 42.296 16.925 43.631 16.734 43.631 16.734 L 42.105 16.352 L 41.151 15.97 L 41.151 15.78 C 42.105 16.352 43.631 16.161 43.631 16.161 L 42.105 15.78 L 41.151 15.398 L 41.151 15.016 C 41.151 15.016 41.342 15.398 42.677 15.589 C 43.631 15.78 44.585 16.161 44.585 16.925 C 44.585 17.688 43.822 18.069 43.25 18.069 C 42.296 18.069 41.532 17.688 41.532 17.688 L 41.532 17.497 L 43.25 17.688" class="background" style="fill: rgb(255, 255, 255);"></path>
    <text ><textPath xlink:href="#path-0"></textPath></text>
  </g>
  <g class="banner" style="visibility: hidden;">
    <path d="M26.2809 7.225l-.2353.1765-.1177-.1177c-.0588-.1176-.1177-.1176-.6472-.0588-2.4121.2353-4.4713 1.2355-5.9422 2.8829-.353.4118-.706.9413-.706 1.059l.2354.1765c.6471.4706 1.2355 1.3531 1.4708 2.2945.2942.8825.2942 1.059 0 2.0592-.1765.7648-.1765 1.0001-.1765 1.5296 0 .5884 0 .6472.1765 1.0002.1177.2353.2353.353.4707.5295.2941.1765.353.1765.706.1765 1.2943 0 2.4122-1.0002 2.2357-2.0003-.0589-.1765-.1177-.2354-.2942-.353-.4118-.1765-.9413-.8825-.9413-1.1179 0-.0588 1.1178-.8237 1.6473-1.0002 1.4708-.4706 1.5885-1.9415 1.8827-.8236.0588.1765.2941.0588.7648-.0589l1.3532-.1765c.4707 0 .6472 0 .7648-.1176.2354-.1765.2354-.1765.2354 0 0 .1176 0 .1176.5883.2353.6472.1177 1.1178.2353 1.2355.353.0588.1177-.4118.7648-1.412 2.0004l-.5883.8825c-.2354.4118-.2354.6471.1765 1.059.4706.5295.9413.706 2.5298 1.0001 1.1767.2354 1.7062.4119 1.7062.5884 0 .2353-.353.706-.8825 1.2943-.706.7649-.7649 1.0002-.7649 1.5885.0589.7649.2942 1.4709.6472 1.9415.353.6472.4118.5884.2353-.4706l-.1176-1.0002c0-1.1178.2941-1.6474 1.0001-2.0592.6472-.2942.706-.353.706-1.2943l.0589-.8825c.0588-.0589-1.2944-.8237-2.2357-1.2944-.4707-.2353-.8825-.6471-1.059-1.0001l-.1177-.2942.2942-.1177c.6472-.2353.8825-.353 1.0002-.5295l.4118-1.1767c.353-1.1178.5295-1.3531.8825-1.8238l.2942-.2942v-.4118l-.353-1.059c-.2942-.5883-.4119-.706-.8237-1.059-1.3532-1.2944-3.1182-2.118-5.0009-2.2945-.8825-.1177-1.059-.0589-1.2943.0588z" class="background" style="fill: rgb(255, 255, 255);"></path>
    <path d="M26.2809 7.225l-.2353.1765-.1177-.1177c-.0588-.1176-.1177-.1176-.6472-.0588-2.4121.2353-4.4713 1.2355-5.9422 2.8829-.353.4118-.706.9413-.706 1.059l.2354.1765c.6471.4706 1.2355 1.3531 1.4708 2.2945.2942.8825.2942 1.059 0 2.0592l-.2353 1.5296c0 .5884.0588.6472.1765 1.0002l.5295.5295c.2941.1765.353.1765.706.1765 1.2943 0 2.4122-1.0002 2.2357-2.0003-.0589-.1765-.1177-.2354-.2942-.353-.4118-.1765-.9413-.8825-.9413-1.1179l1.3531-.7648c1.2944-.5884 1.3532-.6472 1.5297-.9414l.353-.353c.1177-.1176.1177-.1176.1177.1177l.1176.2353.8237-.1765 1.3532-.1765c.4707 0 .6472 0 .7648-.1176.2354-.1765.2354-.1765.2354 0-.0589.1176 0 .1176.5883.2353.6472.1177 1.1178.2353 1.1767.353.1176.1177-.353.7648-1.3532 2.0004l-.5883.8825c-.2354.4118-.2354.6471.1765 1.059.4706.5295.9413.706 2.5298 1.0001 1.1767.2354 1.7062.4119 1.7062.5884 0 .2353-.353.706-.8825 1.2943-.706.7649-.8237 1.0002-.7649 1.5885.0589.7649.2942 1.4709.5884 1.9415.4118.6472.4706.5884.2941-.4706l-.1176-1.0002c0-1.1178.2353-1.6474 1.0001-2.0592.6472-.2942.706-.353.706-1.2943l.0589-.8825c0-.0589-1.2944-.8237-2.2357-1.2944-.4707-.2353-.8825-.6471-1.059-1.0001l-.1177-.2942.2942-.1177c.6472-.2353.8825-.353 1.0002-.5295l.4118-1.1767c.353-1.1178.4707-1.3531.8825-1.8238l.2942-.2942v-.4118c-.0589-.2942-.1177-.5295-.4119-1.059-.2353-.5883-.353-.706-.7648-1.059-1.3532-1.2944-3.177-2.118-5.0009-2.2945-.8825-.1177-1.059-.0589-1.2943.0588zm-.5295.4118l.0588.353.1177-.0588.2353-.353.2354-.2353h.7648c2.0004.1176 3.883.8825 5.295 2.2357.5295.5295.9414 1.2943 1.059 2.0003.0589.2353.0589.2353-.2941.4118-.1765.1765-.2942.2354-.2942.1765l.2353-.8825-.4706 1.0002-.5295 2.0592c-.0589 0-.1177 0-.2942-.1765-.4118-.353-1.3532-.7649-2.1768-.9414-.2354 0-.2354 0-.1765-.1765l.0588-.2941c.1177-.2354.0588-.2354-.4118.1176l-.5295.353-.6472.0589c-.7649.0588-1.765.2353-1.8239.2941-.0588 0-.0588-.1176.0589-.706l-.0589-.1765-.9413 1.059c-.1765.2354-.1765.2942-.706.4707a9.531 9.531 0 00-3.5889 2.1769l-.5883.5295.2942-.8825.353-.8237c.1176 0 .1765.0588 0-.8825l-.1765-.8237.2353.4707.1765.4706.1765-1.3531c0-.353-.0588-.8237-.2353-1.2944-.1765-.2941-.1765-.1765-.0589.2942.1765.6472.1765 1.0002 0 .4707-.0588-.2942-.2353-.6472-.2353-.5295l.1177.4706c.1176.8825.0588 1.0002-.1765.353-.1765-.4118-.5884-1.1766-.6472-1.1178l.1177.353.2941 1.4708-.2941-.5295c-.2942-.7648-.5295-1.1178-1.059-1.6473l-.353-.353.2941-.4118c.8825-1.1767 2.3534-2.2357 4.0007-2.7652.7649-.2942 2.0592-.5884 2.4122-.5884.1177 0 .1765.0589.1765.353zm5.295 6.9424a8.0602 8.0602 0 01-1.1766 1.4709c-.2942.1765-.2942.1176 0-.1765a17.709 17.709 0 001.1766-1.2944zm.7649.353c0 .2354-.1177.4707-.2354.4707l-1.2355.4707.2942-.4707c.353-.4119.4707-.5295.353-.2353-.1177.2353-.0588.1765.1177 0l.2353-.2354c.0588.0588.1765 0 .2353-.1177.1765-.1176.2354-.1176.2354.1177zm-9.59 1.2355c.059.1177.059.1177.1178 0 0-.1765.1176-.1765.1765 0l.1176.1177.1765.1177c.1177.1176.1177.1176 0 .1176l-.2353.0589c-.2942 0-.6472.1765-.8237.4706l-.1765.2354-.1177-.706c.0589-.4119.1765-.4707.2354-.1177l.0588.1765.0588-.2353c.0589-.1765.1177-.2942.1765-.2354l.1177-.0588c0-.1765.0588-.1177.1177.0588zm8.1191.7649l-.2353.4118.2942-.2942.353-.2941-.1177.2353v.2942l.1177-.1177.1765-.2353.1176.1176.2354.1177.2941.1177.353.1176 1.059.5295.9414.4119-.0589.4118v.4707l-1.9415-.5295c-2.0003-.4707-2.2945-.5884-2.5886-.9414-.1765-.1765-.1765-.1765-.1177-.2941.1177-.2354.4118-.5884.5883-.706l.1765-.1177-.1176.2353-.1765.353c-.1177.2354 0 .1765.1176-.0588l.6472-.6472-.1765.4119zm-1.059.1765c-.1176.2941-.2353.353-.2353.2353l.353-.4707zm-7.9425.4706l.2941.5295.2354-.353.1765-.353.0588.1765c.0588.1177.0588.1177.1177-.1176l.1177-.2354.0588.353c0 .353 0 .353.0588.1765l.1177-.353v-.2353l.0588.2353c.1177.4707.0589.6472-.1176.8825-.353.4119-1.0002.5884-1.4709.4119-.1765-.1177-.2942-.2942-.353-1.0002-.0588-.5883.0588-.6472.2353-.0588l.0589.4118.0588-.4707c0-.706.0588-.6471.2942 0zm2.118-.1176c0 .1176-.1177.353-.2353.4118l.0588-.1177.1765-.5295c0-.1176 0-.1176.0588-.0588zm-2.9417.1176l.1177.7649-.2354-.5884.0589-.2941zm13.3552 2.6475c-.0588.1177-.5883.4119-.706.4119l.1177-.1765.2353-.1765c.1765 0 .2354 0 .353-.1765.0589-.1765.0589-.1765.1177-.1177zm-.8236.353l-.2354.1765c-.1765.1177-.1176 0 .1177-.2353.2353-.2942.2942-.2353.1177.0588zm-.8237 1.059c-.0588.1177-.1765.1766-.1765.1177 0-.1176.0588-.2353.1765-.2353zm-.0588.353l-.1177.1766c-.0588.0588-.0588.0588-.0588-.0589l.0588-.1176zm.0588.4707l.0588.2942.0589.5295-.0589.4118-.0588-.1765-.1765-.5883c-.0588-.353-.0588-.4118.0588-.5295.1177-.2353.1765-.2353.1177.0588z" style="fill: rgb(255, 255, 255);"></path>
    <path d="M32.5761 11.5199l-.4118 1.4708.0588.1177c.1177 0 .1177 0 .353-.9414l.1765-.7648c.0588-.2353-.1177-.1177-.1765.1177zm-.5295.353c-.1765.4706-.2353 1.0001-.1177 1.0001.1177 0 .1177-.0588.1765-.5883.1177-.6472.0589-.8237-.0588-.4118zM21.28 11.6375l.1177.353.1765.5884c.0588.4706.1177.4118.1177-.0589-.0589-.4706-.1765-.8236-.2942-.8825zm10.296.1177l-.0589.353c.0588.1177.0588.1177.1177-.0588.1176-.1765.1176-.2942.0588-.353-.0588-.0589-.0588-.0589-.1177.0588zm-9.6488.4118c.0588.4119.1177.4119.1177 0l-.0589-.2353c-.1176 0-.1176 0-.0588.2353zm11.708 6.4717c-.059.2354-.059.2942.0587.1765v-.2941z"></path>
    <text ><textPath xlink:href="#path-1"></textPath></text>
    <path style="fill: rgb(216, 216, 216); stroke: rgb(0, 0, 0);" d="M 48.981 14.016"></path>
  </g>
  <g class="banner" style="visibility: hidden;">
    <path d="M20.0522 1.6254c-.9613.0961-1.4419.4806-.4807.3845 1.442-.1923 2.1148-.0961 4.0373.9612 1.7303.8652 2.1148 1.0574 3.5566 1.3458.8652.0961-.769.2884-1.4418.0961-.769-.1922-1.8264-.1922-2.5954.0961-.5768.1923-.8651.2884-.769.3845l1.2496.0962c1.2496 0 1.3458 0 2.7876.4806 1.538.4806 1.6342.4806 2.7877.4806 1.2496 0 1.3457 0 2.4031-.3845 1.538-.4806 2.6915-.4806 2.7876 0 .0962.1923 0 .4806-.096.4806-.2885 0-1.2497.3845-1.442.5768-.3845.3845-.3845.769 0 1.538s.673 1.4419.673 2.0186c0 .4807-.0962.5768-.9613.2884L29.088 8.7387c-1.6342-1.0574-2.307-1.0574-2.307-1.0574 0-.3845-1.442-.4806-1.442-.4806l-.1922-.769-.6729-.0962c-.865-.0961-2.6915.0961-3.7488.3845-1.3458.3845-2.6916 1.0574-3.749 1.9225l.3846.769c.5767.8652.8651 1.9225.8651 3.1722.0961 1.0573.0961 1.0573-.3845 2.6915-.769 2.5954.0961 2.4992 1.538 2.7876l-1.2496.9613-1.442 1.0573c-1.1534.769-1.7302 1.6342-1.9224 2.98-.0961.9612.0961 2.0186.6729 3.076.5767 1.3457.6728 2.0186.2883 3.3643l-.1922.6729c.0961.0961.5767-.6729.769-1.1535.2884-.8651.2884-2.307 0-3.1721-.2884-.673-.0961-1.9225-.0961-1.9225l.9612 2.1147.8651 1.8264v.8651l-.096 1.1535c-.1923.4807-.0962.3845.2883-.1922.6729-1.3458.5767-2.8838-.2884-4.614-.3845-.5768-.4806-.8652-.4806-1.3458-.0961-1.3458.4806-2.2109 2.307-3.4605l1.4419-.9613c.2884-.3845.3845-.865.0961-1.4418l-.5767-2.1148c.096-.0961.865 0 1.538.0961.865.1923 1.538.4807 3.3643 1.3458 1.7303.8651 2.7877 1.3457 4.3257 1.7302 1.1535.2884 1.3457.2884 2.9799.2884 1.2496 0 1.8263 0 2.307-.1922.6729-.1923 1.8264-.673 2.1147-.9613l.2884-.1922-.4806-2.211-.3845-2.403.5767-1.2497c1.2497-2.0186 1.0574-2.8837-.4806-3.5566l-.8651-.3845c-.1923-.2884.0961-1.1535.769-2.4993l.6729-1.4419c0-.4806-.9613-1.1535-2.0187-1.4418-.8651-.2884-2.5954-.1923-4.5179.2883-1.3457.1923-1.7302.2884-2.9798.2884-1.8264 0-2.0187-.0961-4.1334-.8651-1.9225-.769-2.7877-.9613-3.749-.769zm13.073 5.383c2.4993 5.9598 1.1535-.4806 1.1535-.4806-.0961 0-.1922 0-.1922.1922l-.8652.2884c-.096.1923-.1922-.1923-.096 0z" class="background" style="fill: rgb(255, 255, 255);"></path>
    <path d="M20.0522 1.6254c-.9613.0961-1.4419.4806-.4807.3845 1.442-.1923 2.1148-.0961 4.0373.9612 1.7303.8652 2.1148 1.0574 3.5566 1.3458.8652.0961 1.1536.1922 1.0574.2884-.1922.096-1.8264 0-2.4992-.1923-.769-.1922-1.8264-.1922-2.5954.0961-.5768.1923-.8651.2884-.769.3845l1.2496.0962c1.2496 0 1.3458 0 2.7876.4806 1.538.4806 1.6342.4806 2.7877.4806 1.2496 0 1.3457 0 2.4031-.3845 1.538-.4806 2.6915-.4806 2.7876 0 .0962.1923 0 .4806-.096.4806-.2885 0-1.2497.3845-1.442.5768-.3845.3845-.3845.769 0 1.538s.673 1.4419.673 2.0186c0 .4807-.0962.5768-.9613.2884L29.088 8.7387c-1.6342-1.0574-1.8264-1.1535-2.1148-.9613l-.1923-.0961c0-.3845-.865-.8652-1.2496-.5768l-.1922-.2884-.1923-.3845-.6729-.096c-.865-.0962-2.6915.096-3.7488.3844-1.3458.3845-2.6916 1.0574-3.749 1.9225l.3846.769c.5767.8652.8651 1.9225.8651 3.1722.0961 1.0573.0961 1.0573-.3845 2.6915-.769 2.5954-.769 2.6915.6729 2.9799l.3845.096-.769.673-1.442 1.0573c-1.1534.769-1.7302 1.6342-1.9224 2.98-.0961.9612.0961 2.0186.6729 3.076.5767 1.3457.6728 2.0186.2883 3.3643l-.1922.6729c.0961.0961.5767-.6729.769-1.1535.2884-.8651.2884-2.307 0-3.1721-.2884-.673-.3845-2.4032-.2884-2.307l.1923.3845.9612 2.1147.8651 1.8264v.8651l-.096 1.1535c-.1923.4807-.0962.3845.2883-.1922.6729-1.3458.5767-2.8838-.2884-4.614-.3845-.5768-.4806-.8652-.4806-1.3458-.0961-1.3458.4806-2.2109 2.307-3.4605l1.4419-.9613c.2884-.3845.3845-.865.0961-1.4418l-.5767-2.1148c.096-.0961.865 0 1.538.0961.865.1923 1.538.4807 3.3643 1.3458 1.7303.8651 2.7877 1.3457 4.3257 1.7302 1.1535.2884 1.3457.2884 2.9799.2884 1.2496 0 1.8263 0 2.307-.1922.6729-.1923 1.8264-.673 2.1147-.9613l.2884-.1922-.4806-2.211-.3845-2.403.5767-1.2497c1.2497-2.0186 1.0574-2.8837-.4806-3.5566l-.8651-.3845c-.1923-.2884.0961-1.1535.769-2.4993l.6729-1.4419c0-.4806-.9613-1.1535-2.0187-1.4418-.8651-.2884-2.5954-.1923-4.5179.2883-1.3457.1923-1.7302.2884-2.9798.2884-1.8264 0-2.0187-.0961-4.1334-.8651-1.9225-.769-2.7877-.9613-3.749-.769zm15.38 1.3457l.9613.4807c.5767.2883.6729.5767.3845.9612-.1923.1923-.1923.1923-.3845 0-.1923-.1922-.1923-.1922-.3845.2884-.2884.4806-.3845.3845-.1923-.2884l.1923-.5767c-.0961-.1923-.2884-.1923-.2884.096 0 .1923-.3845 1.1536-.5768 1.1536v-.1923l.1923-.5767V3.74c-.1923-.1922-.2884-.096-.3845.3845l-.0961.673c-.0962.1922-.1923.2883-.4807.1922-.9612-.1923-1.4418-.1923-2.403.1922-1.8265.5768-2.98.6729-4.4218.2884-.4807-.1923-.5768-.1923-.2884-.2884l.8651-.1922c.6729-.0962 3.1721-.8652 3.2683-.9613.096-.1922-.5768-.1922-1.0574-.0961-.8651.1922-1.538.2884-2.307.1922l-1.8264-.4806 1.4419-.0961c1.538 0 2.6915-.1923 4.614-.5768 1.2496-.2883 2.2109-.2883 3.1721 0zm.769 2.8838l-.2883.8651-.2884.6729v-.4806c0-.2884-.0962-.3845-.1923-.3845l-.0961.0961-.1923.1922-.3845-.096c0-.0962-.1922-.1923-.2883-.0962l-.1923-.0961c-.0961 0-.1922 0-.1922.1922l-.0962.3845-.096-.0961-.3846-.0961-.2884.0961c-.096.1923-.096.1923-.096 0 0-.3845.3844-.5768 1.7302-.9613 1.2496-.3845 1.4419-.3845 1.3457-.1922zm-11.535.769l.3845.0961v1.538l.3845-.4806c.3845-.4806.4806-.4806.6729-.3845.2883.1923.2883.1923.1922.769l-.0961.3845.5767-.2884.4807-.2883.2884.096 1.2496.8652c2.9799 1.8264 4.614 2.4031 7.1133 2.2109h1.3457l-.769 1.8264-.8651 2.1147c-.1923.5768-.2884 1.2497-.0962 1.538l.1923-.1922.0961-.4806.0962.3845.1922.865.0961.2885.1923-.4807.1922-.4806.2884.4806.2884.5768-.1923.2884c-.0961.2883-.2883.3845-.769.5767-.8651.1923-2.7876.5768-3.4605.5768-.6729 0-2.0186-.2884-2.9799-.4807-1.538-.4806-2.9799-1.0573-4.3256-1.8263a8.7474 8.7474 0 00-5.0946-1.2497c-.769.0962-1.9226.5768-2.307.8652l-.0962.096 1.1535-3.076.0961.769c0 .8652.0962.4807.3845-1.2496.1923-1.4418.1923-2.0186.0962-2.403-.0962-.1923-.0962-.1923-.1923.2883-.0961.6729-.0961.5767-.3845-.5768l-.3845-.769v.769l-.0961 1.0574c-.0961.1923-.0961.2884-.3845-.4806l-.4806-1.2496-.3845-1.0574c2.1147-1.4419 4.7101-2.1148 7.3055-1.8264zm10.8621 1.7303c.8652.1922 1.6342.4806 2.0187.865.2884.2885.2884.673-.0961 1.0575-.2884.2883-.2884.2883-.4807.1922-.0961-.1922-.1922-.1922-.2883-.0961-.1923.0961-.1923.0961-.2884-.0961v-.1923l-.1923.1923-.1922.2883-.0961-.3845c-.1923-.4806-.3846-.4806-.2884 0l-.0962.1923-.1922-.4806-.1923-.4807v.3845l-.1922.3845c-.0961.0962-.1923-.096-.2884-.6728 0-.3845-.2884-.3845-.1922 0 0 .6728-.1923.5767-.2884-.1923-.0961-.4806-.2884-.6729-.3845-.5767v.3845c.0961.1922.1922.4806.0961.5767 0 .3845 0 .3845-.5767-1.4419-.0962-.1922 0-.1922.6728-.096zm-15.0916 7.9784l.1922.5767.0962.3845-.8652.2884-.8651.1922-.0961-.1922c-.1923-.2884-.1923-.9613 0-.8651l.0961.1922.0961.3845c.0961.0961.1923 0 .1923-.2884 0-.2883 0-.3845.0961-.2883.1922.1922.2884.1922.2884-.0962 0-.3845.0961-.3845.1922-.1922l.1923-.0961c.0961-.2884.2884-.2884.3845 0zm-1.9225 1.1535c.0961.1922 0 .2883-.0962.2883-.1922 0-.2883-.2883-.1922-.5767.0961-.1923.1922-.0961.2884.2884zm1.7302 1.3457v.4806l.0962-.2883c.2883-.673.3845-.673.3845-.1923 0 .4806-.0962.5768-.2884.6729-1.4419.769-2.6915 1.9225-3.076 2.7876l-.3845 1.0574c-.0962.4806-.0962.4806-.1923.3845l-.1922-.6729c-.0962-.5767-.0962-.5767.1922-1.0574l.4806-.769c.3845-.3845.0962-.3845-.5767.1923-.6729.5767-.8651.9612-1.1535 2.0186-.1923.769-.2884.8652-.3845.2884-.3845-1.1535.3845-2.4993 1.6341-3.3644l.9613-.6729c.2883-.2883.3845-.2883.4806-.1922l.2884-.0961h.1922v.2883c0 .0962.0961.0962.1923-.096h.2883l.1923-.3846c.0961-.769.1922-.769.2884-.2884v.4807l.1922-.5768c.1923-.6729.2884-.6729.3845 0z" style=""></path>
    <path d="M34.5671 3.7401l-.0961.3845-.0962.2884-.096-.2884-.1923-.1922c-.2884 0-.2884 0-.0962.3845.1923.2884.5768.5767.673.4806l.1922-.9612c-.0962-.0962-.1923-.1923-.2884-.0962zm-1.1535.3845l.1922.3845c.2884.1923.2884.0962.2884 0 0-.1922-.2884-.4806-.4806-.4806zm-13.5537 6.921l-.0961 1.8264c-.1923.769-.0961 1.0574 0 .8652l.2884-.9613c.2884-1.4419.1922-2.5954-.0961-2.5954zm.5768.0962l-.0961.5767-.0962.769.0962.2884c.2883 0 .4806-1.4419.2883-1.6341zm15.38 1.7302c-.1922.1923-.9612 2.4993-.9612 3.076v.4807l.6728-1.8264c.4807-1.538.5768-2.1148.2884-1.7303zm-1.1535 1.0574l-.0961 1.6342.4806-1.538c0-.2884-.2884-.3846-.3845-.0962zm-.5767.1923v.769c0 .9612.0961.8651.1922-.0961.0961-.673 0-.8652-.1922-.673z" style=""></path>
    <text ><textPath xlink:href="#path-2"></textPath></text>
    <path style="fill: rgb(216, 216, 216); stroke: rgb(0, 0, 0);" d="M 29.146 9.949"></path>
  </g>
  <g class="banner" style="">
    <path d="M15.5107 7.254c-.9743.1948-1.9486.9742-2.3383 1.8511-.1949.3897-.1949.5846.2923 2.3383.2923 1.2666.2923 1.9486.1948 3.0203-.1948.7795-.2923 1.1692-.682 1.5589-1.1691 1.0717-1.0717.9743-1.0717 1.1691.2923 1.0718 1.6563 2.1435 3.3126 2.728.682.195.7794.195.9743.0975l.2923.0974a48.4225 48.4225 0 0012.6658 1.2666l3.41-.0974c.0975.0974.0975.4871-.0974.682l-.682.5845c-.3897.2923-.3897.3898-.3897.5846.0974.2923.4871.5846 1.364.9743 1.2666.5846 2.2409.5846 3.6049.2923.8769-.2923 1.5589-.7794 1.9486-1.2666.1949-.2923.1949-.3897.1949-1.1691 0-.682 0-.9743.1948-1.4615.2923-.9743 1.0717-2.3383 1.9486-3.3126.4871-.5846.4871-.8768 0-1.4614-.4871-.682-1.4614-1.1692-2.6306-1.4615-.682-.1948-1.0717-.0974-1.7537.1949l-.0975-.1949c.3898-.1948.4872-.3897.1949-.3897h-1.8512c-6.5277.3897-9.8403.1949-12.958-.682l-1.3641-.2923-.9743-.1948-.2923-.0974-.3897.2922-.4871.195v-.6821l-.9743-.2923-.877-.1948.0975-.2923.1949-.5846L17.9464 9.3c.682-.682.5846-1.1692-.2923-1.7538-.682-.3897-1.2665-.4871-2.1434-.2923z" class="background" style="fill: rgb(255, 255, 255);"></path>
    <path d="M15.5107 7.174c-.9743.2924-1.9486 1.0718-2.3383 1.8512-.1949.4872-.1949.682.2923 2.4358.2923 1.2666.2923 1.9486.1948 3.0203-.1948.7794-.2923 1.1692-.682 1.5589-1.1691.9743-1.0717.9743-1.0717 1.1691.2923 1.0718 1.6563 2.1435 3.3126 2.728.682.195.7794.195.9743.0975.0974-.0974.1949-.0974.2923.0974a48.4225 48.4225 0 0012.6658 1.2665l3.41-.0974c.0975.0974.0975.4872-.0974.682l-.682.5846c-.3897.2923-.3897.2923-.3897.5846.0974.2923.4871.5846 1.364.9743 1.2666.5846 2.2409.5846 3.6049.2923.8769-.2923 1.5589-.7794 1.9486-1.2666.1949-.2923.1949-.3897.1949-1.1691 0-.682 0-.9743.1948-1.4615.2923-.9743 1.0717-2.3383 1.9486-3.3126.4871-.5846.4871-.8769 0-1.4614-.4871-.682-1.4614-1.1692-2.6306-1.4615-.682-.1948-1.0717-.1948-1.7537.1949l-.3897.1948.2922-.3897c.3898-.1948.4872-.3897.1949-.4871l-1.8512.0974c-6.5277.3897-9.8403.1948-12.958-.682l-1.3641-.2923-.9743-.1949-.2923-.0974-.3897.2923-.4871.1949v-.682l-.9743-.2923-.877-.1949.0975-.2923.1949-.5846 1.4614-1.7537c.682-.682.5846-1.1691-.2923-1.7537-.682-.3897-1.2665-.4872-2.1434-.3897zm1.5589.3898c.4871.0974.8768.3897.8768.7794.0975.2923 0 .2923-.0974 0l-.1949-.0974-.2923-.0974-.1948-.2922-.0974.3897c-.0975.3897-.2923.4871-.3898.3897l-.0974-.3897-.2923-.2923-.9743.1948-.3897.7795c-.2923.7794-.2923.7794-.3897.4871-.1949-.5846-.0974-.4871-.2923-.2923l-.0974.1949-.0975-.3897c-.0974-.3897.0975-.7795.5846-1.0717.682-.4872 1.6563-.5846 2.4358-.2923zm-.877.7794l-.5845.9743c-.2923 0-.2923-.7794 0-.9743zm.5847 1.8512l-.682.7794.2923-.9743c.0974-.0974 0-.0974-.2923-.1948-.3898 0-.4872.0974-.2923.2923.1948 0 .1948.0974-.0975.0974-.3897.0974-.3897.0974-.1948.2923.0974.1948 0 .1948-.2923.0974-.2923 0-.2923 0-.1949.1948.0975.1949 0 .2923-.0974.2923h-.2923l.5846-1.6563.3897.0974c.3897.1949.682.1949 1.364-.0974h.3897zm-1.0718 1.7537l1.2666.4872.5846.1948.0974.2923.0975.5846c0 .2923.0974.3897.1948.2923l.2923-.2923.3897-.4871h.7795l1.7537.3897c3.7023.8769 6.82 1.0717 11.4967.7794l2.2409-.0974h.8768l-.0974.2923-.0974.4871c-.0975.2923.0974.2923.2923.0974.2922-.3897.8768-.5845 1.4614-.5845.3897 0 1.5589.3897 2.1434.682.5846.4871 1.1692 1.0717 1.1692 1.364l-.4871.8769-.4872.5845v-.8768c-.5846 1.4614-1.0717 2.8254-1.4614 4.2869l-.0975.4871-.2923-.1949c-.2922-.1948-.7794-.3897-1.5588-.4871l-5.8458-.0974-3.41.0974v-.1949c0-.1948-.1949-.1948-.3898 0l-.1948.1949h-1.1692c-3.7023-.0974-5.8457-.2923-7.5995-.8769-.8768-.2923-.7794-.1948-.9743-.8768-.0974-.2923-.1948-.4872-.1948-.2923 0 .1948-.4872.7794-.5846.7794-.1949.0974-1.364-.4871-2.046-.8769-.682-.4871-1.2666-.9743-1.4615-1.4614l-.2922-.4871.682-.5846.9743-.7794c.2922-.2923.2922-.2923 0 .1948-.2923.3897-.2923.5846-.0975.4872.5846-.3898 1.6563-2.1435 1.6563-2.8255l.0975-.3897-.2923.3897-.1949.4871v-1.2665c-.1949-.0974-.1949-.0974-.2923.2923l-.3897.682c-.0974.1948-.0974.1948-.0974-.2923 0-.8769-.1949-1.5589-.3897-2.3383l.5845.2923zm19.3885 9.3533c.0974.1948.1949.9743.0974 1.1691l-.3897-.0974-1.1691-.0974-.8769-.0974.7794-.3897c.4872 0 .5846-.0974.2923-.0974-.0974-.0974-.1948-.0974-.0974-.1949l.0974-.1948zm2.2409 1.0717c.0974.1948-.0974.4871-.2923.8769-.2923.2922-.1949.2922.1949.0974.2923-.1949.3897-.3898.4871-.682.0974-.195.1949-.195.2923-.0975.1949.2923-.3897.9743-.9743 1.2666l-1.9486.5846-.8768-.0974c-.5846-.0974-1.1692-.2923-1.6563-.5846-.3898-.1948-.3898-.1948-.2923-.4871.0974-.2923.1948-.3897.3897-.3897v.1948c-.1949.4872-.0974.4872.2923.1949l.2923-.1949v.4872l.3897-.1949c.1948-.1949.4871-.1949.2923.0974l-.0975.1949c0 .1948.2923.1948.8769 0l.8769-.5846.1948-.3897.1949-.1949.0974.2923v.2923l.1949-.2923.2923-.3897-.0975.2923-.0974.4871v.2923l.1949-.0974.3897-.5846.0974-.4871c.0974-.0974.2923 0 .2923.0974zm-2.2409.4871c.0974.1949-.0974.3898-.2923.4872-.3897.1948-.3897 0-.1948-.2923.1948-.3897.3897-.4872.4871-.1949zm-3.2152.2923c-.0974.0974-.0974.0974-.0974-.0974v-.1949c.1949-.0974.1949.0974.0974.2923z"></path>
    <path d="M14.6192 13.9758c-.5846.9743-.5846 1.2666-.2923.9743.3897-.1948 1.0717-1.5588.8769-1.8511zm.3897.682c-.1948.2923-.1948.4872.0975.195.3897-.195.4871-.2924.3897-.4872-.1949-.0974-.2923-.0974-.4872.2923zm23.7728.9743zm-1.7537.877l-.1949 1.5588c.0975.0974.0975 0 .3898-.7794l.0974-.7795zm.7794 0l-.4871 2.046c0 .2922.1948-.0975.4871-.9744.2923-.8768.3898-1.0717.1949-1.0717z"></path>
    <text ><textPath xlink:href="#path-3"></textPath></text>
  </g>
</svg>
