<svg
  width="200"
  height="120"
  xmlns="http://www.w3.org/2000/svg"
  xmlns:xlink="http://www.w3.org/1999/xlink"
  viewBox="0 0 301 181"
>
  <defs>
    <path
      id="path-1"
      fill="none"
      d="M44 100c14 3 35 10 55 13 27 3 43 1 80 1l65 7"
    ></path>
  </defs>
  <path
    class="background"
    d="M37 1C27 3 17 11 13 20c-2 4-2 6 3 24 3 13 3 20 2 31-2 8-3 12-7 16-12 11-11 10-11 12 3 11 17 22 34 28 7 2 8 2 10 1l3 1a497 497 0 00130 13l35-1c1 1 1 5-1 7l-7 6c-4 3-4 4-4 6 1 3 5 6 14 10 13 6 23 6 37 3 9-3 16-8 20-13 2-3 2-4 2-12 0-7 0-10 2-15 3-10 11-24 20-34 5-6 5-9 0-15-5-7-15-12-27-15-7-2-11-1-18 2l-1-2c4-2 5-4 2-4h-19c-67 4-101 2-133-7l-14-3-10-2-3-1-4 3-5 2v-7l-10-3-9-2 1-3 2-6 15-18c7-7 6-12-3-18-7-4-13-5-22-3z"
  ></path>
  <path
    d="M37 0C27 3 17 11 13 19c-2 5-2 7 3 25 3 13 3 20 2 31-2 8-3 12-7 16-12 10-11 10-11 12 3 11 17 22 34 28 7 2 8 2 10 1 1-1 2-1 3 1a497 497 0 00130 13l35-1c1 1 1 5-1 7l-7 6c-4 3-4 3-4 6 1 3 5 6 14 10 13 6 23 6 37 3 9-3 16-8 20-13 2-3 2-4 2-12 0-7 0-10 2-15 3-10 11-24 20-34 5-6 5-9 0-15-5-7-15-12-27-15-7-2-11-2-18 2l-4 2 3-4c4-2 5-4 2-5l-19 1c-67 4-101 2-133-7l-14-3-10-2-3-1-4 3-5 2v-7l-10-3-9-2 1-3 2-6 15-18c7-7 6-12-3-18-7-4-13-5-22-4zm16 4c5 1 9 4 9 8 1 3 0 3-1 0l-2-1-3-1-2-3-1 4c-1 4-3 5-4 4l-1-4-3-3-10 2-4 8c-3 8-3 8-4 5-2-6-1-5-3-3l-1 2-1-4c-1-4 1-8 6-11 7-5 17-6 25-3zm-9 8l-6 10c-3 0-3-8 0-10h6zm6 19l-7 8 3-10c1-1 0-1-3-2-4 0-5 1-3 3 2 0 2 1-1 1-4 1-4 1-2 3 1 2 0 2-3 1-3 0-3 0-2 2s0 3-1 3h-3l6-17 4 1c4 2 7 2 14-1h4l-6 8zM39 49l13 5 6 2 1 3 1 6c0 3 1 4 2 3l3-3 4-5h8l18 4c38 9 70 11 118 8l23-1h9l-1 3-1 5c-1 3 1 3 3 1 3-4 9-6 15-6 4 0 16 4 22 7 6 5 12 11 12 14l-5 9-5 6v-9c-6 15-11 29-15 44l-1 5-3-2c-3-2-8-4-16-5l-60-1-35 1v-2c0-2-2-2-4 0l-2 2h-12c-38-1-60-3-78-9-9-3-8-2-10-9-1-3-2-5-2-3s-5 8-6 8c-2 1-14-5-21-9-7-5-13-10-15-15l-3-5 7-6 10-8c3-3 3-3 0 2-3 4-3 6-1 5 6-4 17-22 17-29l1-4-3 4-2 5V57c-2-1-2-1-3 3l-4 7c-1 2-1 2-1-3 0-9-2-16-4-24l6 3 14 6zm199 96c1 2 2 10 1 12l-4-1-12-1-9-1 8-4c5 0 6-1 3-1-1-1-2-1-1-2l1-2h13zm23 11c1 2-1 5-3 9-3 3-2 3 2 1 3-2 4-4 5-7 1-2 2-2 3-1 2 3-4 10-10 13l-20 6-9-1c-6-1-12-3-17-6-4-2-4-2-3-5s2-4 4-4v2c-2 5-1 5 3 2l3-2v5l4-2c2-2 5-2 3 1l-1 2c0 2 3 2 9 0l9-6 2-4 2-2 1 3v3l2-3 3-4-1 3-1 5v3l2-1 4-6 1-5c1-1 3 0 3 1zm-23 5c1 2-1 4-3 5-4 2-4 0-2-3 2-4 4-5 5-2zm-33 3c-1 1-1 1-1-1v-2c2-1 2 1 1 3z"
  ></path>
  <path
    d="M31 80c-6 10-6 13-3 10 4-2 11-16 9-19l-6 9zm4 7c-2 3-2 5 1 2 4-2 5-3 4-5-2-1-3-1-5 3zm244 10a420 420 0 000 0zm-18 9l-2 16c1 1 1 0 4-8l1-8h-3zm8 0l-5 21c0 3 2-1 5-10s4-11 2-11h-2z"
  ></path>
  <text>
    <textPath 
    startOffset="50%"
    text-anchor="middle"
    xlink:href="#path-1" 
    class="name" 
    data-max="11"></textPath>
  </text>
</svg>